<svg width="16" height="16" viewBox="0 0 16 16" fill="none" xmlns="http://www.w3.org/2000/svg">
<path d="M0.666667 14.6667H15.3333C15.5101 14.6667 15.6797 14.7369 15.8047 14.8619C15.9298 14.987 16 15.1565 16 15.3333C16 15.5101 15.9298 15.6797 15.8047 15.8047C15.6797 15.9298 15.5101 16 15.3333 16H0.666667C0.489856 16 0.320287 15.9298 0.195262 15.8047C0.070238 15.6797 0 15.5101 0 15.3333C0 15.1565 0.070238 14.987 0.195262 14.8619C0.320287 14.7369 0.489856 14.6667 0.666667 14.6667ZM8.66667 9.38133L13.5893 4.45733L14.532 5.4L7.93333 12L1.33333 5.4L2.276 4.45733L7.33333 9.51467V0H8.66667V9.38133Z" fill="#393D46"/>
</svg>
