<svg width="195" height="184" viewBox="0 0 195 184" fill="none" xmlns="http://www.w3.org/2000/svg">
<path d="M44.3066 59.7875V184H2.41211V59.7875H44.3066ZM46.9727 21.4332C47.0573 27.5332 44.9202 32.6303 40.5615 36.7248C36.2028 40.8193 30.4688 42.8665 23.3594 42.8665H23.1055C16.1654 42.8665 10.5794 40.8193 6.34766 36.7248C2.11589 32.6303 0 27.5332 0 21.4332C0 15.2498 2.17936 10.1317 6.53809 6.07902C10.8968 2.02634 16.5885 0 23.6133 0C30.638 0 36.2663 2.02634 40.498 6.07902C44.7298 10.1317 46.888 15.2498 46.9727 21.4332ZM195 112.807V184H153.232V117.569C153.232 108.796 151.519 101.923 148.091 96.951C144.663 91.9791 139.31 89.4932 132.031 89.4932C126.699 89.4932 122.235 90.9346 118.638 93.8174C115.041 96.7003 112.354 100.272 110.576 104.534C109.645 107.041 109.18 110.425 109.18 114.687V184H67.4121C67.5814 150.659 67.666 123.628 67.666 102.905C67.666 82.1817 67.6237 69.8147 67.5391 65.8038L67.4121 59.7875H109.18V77.8365H108.926C110.618 75.1626 112.354 72.8229 114.131 70.8174C115.908 68.812 118.299 66.6394 121.304 64.2997C124.308 61.96 127.99 60.1426 132.349 58.8474C136.707 57.5522 141.553 56.9046 146.885 56.9046C161.357 56.9046 172.995 61.6467 181.797 71.1308C190.599 80.6149 195 94.5068 195 112.807Z" fill="#ADADAD"/>
</svg>
